<svg width="20" height="20" viewBox="0 0 20 20" fill="none" xmlns="http://www.w3.org/2000/svg">
<path d="M8.9781 4.62736C9.30837 4.58062 9.64908 4.55556 10 4.55556C14.1486 4.55556 16.871 8.05932 17.7855 9.44531C17.8962 9.61306 17.9516 9.69693 17.9826 9.8263C18.0058 9.92346 18.0058 10.0767 17.9825 10.1739C17.9515 10.3033 17.8958 10.3877 17.7843 10.5566C17.5406 10.9257 17.1691 11.4444 16.6769 12.007M5.71231 5.88947C3.95527 7.03021 2.76244 8.61507 2.21524 9.44411C2.10405 9.61257 2.04846 9.69679 2.01746 9.82615C1.99419 9.92331 1.99418 10.0766 2.01744 10.1737C2.04842 10.3031 2.10376 10.387 2.21445 10.5547C3.12903 11.9407 5.85135 15.4444 10 15.4444C11.6728 15.4444 12.9743 14.9291 14.1583 14.1583M3 3L17 17M8.27608 8.35008C7.83489 8.77233 7.56201 9.35567 7.56201 10C7.56201 11.2887 8.65353 12.3333 10 12.3333C10.6732 12.3333 11.2373 12.1008 11.6785 11.6785" stroke="#AAAAAA" stroke-width="2" stroke-linecap="round" stroke-linejoin="round"/>
</svg>
