<svg width="20" height="20" viewBox="0 0 20 20" fill="none" xmlns="http://www.w3.org/2000/svg">
<path d="M2.21444 10.6113C2.10377 10.4265 2.04843 10.334 2.01745 10.1915C1.99418 10.0844 1.99418 9.91557 2.01745 9.8085C2.04843 9.66596 2.10377 9.57354 2.21444 9.3887C3.12902 7.86129 5.85134 4 10 4C14.1487 4 16.871 7.86129 17.7856 9.3887C17.8962 9.57354 17.9516 9.66596 17.9825 9.8085C18.0058 9.91557 18.0058 10.0844 17.9825 10.1915C17.9516 10.334 17.8962 10.4265 17.7856 10.6113C16.871 12.1387 14.1487 16 10 16C5.85134 16 3.12902 12.1387 2.21444 10.6113Z" stroke="#AAAAAA" stroke-width="2" stroke-linecap="round" stroke-linejoin="round"/>
<path d="M10 12C11.1046 12 12 11.1046 12 10C12 8.89543 11.1046 8 10 8C8.89543 8 8 8.89543 8 10C8 11.1046 8.89543 12 10 12Z" stroke="#AAAAAA" stroke-width="2" stroke-linecap="round" stroke-linejoin="round"/>
</svg>
