<svg width="16" height="16" viewBox="0 0 16 16" fill="none" xmlns="http://www.w3.org/2000/svg">
<path d="M15 7.00006H1M5 1V3.99997M11 1V3.99997M5.26667 15H10.7333C12.2268 15 12.9735 15 13.544 14.673C14.0457 14.3854 14.4537 13.9265 14.7094 13.362C15 12.7203 15 11.8802 15 10.2V6.80007C15 6.11991 15 5.27984 14.7094 4.63811C14.4537 4.07363 14.0457 3.61469 13.544 3.32707C12.9735 3.00009 12.2268 3.00009 10.7333 3.00009H5.26667C3.77319 3.00009 3.02646 3.00009 2.45603 3.32707C1.95426 3.61469 1.54631 4.07363 1.29065 4.63811C1 5.27984 1 6.11991 1 6.80007V10.2C1 11.8802 1 12.7203 1.29065 13.362C1.54631 13.9265 1.95426 14.3854 2.45603 14.673C3.02646 15 3.77319 15 5.26667 15Z" stroke="#757575" stroke-width="2" stroke-linecap="round" stroke-linejoin="round"/>
</svg>
