<svg width="20" height="20" viewBox="0 0 20 20" fill="none" xmlns="http://www.w3.org/2000/svg">
<path d="M6 6C6 7.06087 6.42143 8.07828 7.17157 8.82843C7.92172 9.57857 8.93913 10 10 10C11.0609 10 12.0783 9.57857 12.8284 8.82843C13.5786 8.07828 14 7.06087 14 6C14 4.93913 13.5786 3.92172 12.8284 3.17157C12.0783 2.42143 11.0609 2 10 2C8.93913 2 7.92172 2.42143 7.17157 3.17157C6.42143 3.92172 6 4.93913 6 6Z" stroke="#AAAAAA" stroke-width="2" stroke-linecap="round" stroke-linejoin="round"/>
<path d="M3 18V17.3333C3 16.4493 3.36875 15.6014 4.02513 14.9763C4.6815 14.3512 5.57174 14 6.5 14H13.5C14.4283 14 15.3185 14.3512 15.9749 14.9763C16.6312 15.6014 17 16.4493 17 17.3333V18" stroke="#AAAAAA" stroke-width="2" stroke-linecap="round" stroke-linejoin="round"/>
</svg>
