<svg width="308" height="100" viewBox="0 0 308 100" fill="none" xmlns="http://www.w3.org/2000/svg">
<path d="M35.1468 31.6829C40.5855 35.4895 44.413 37.7463 45.5979 38.666C46.689 39.5091 47.5926 40.4458 47.9932 41.4166C48.6496 43.0006 48.5388 47.233 48.428 48.6126C48.3172 49.9922 47.4306 49.9496 47.7205 52.4448C47.9932 54.7697 48.9736 58.0143 49.7322 61.2078C50.2522 63.4049 50.7637 64.5545 50.7637 64.5545L54.4974 63.6518C54.8555 61.7443 55.2561 60.4073 55.6909 58.4656C56.3472 55.5446 57.0377 52.811 57.6685 51.0823C58.3505 49.2258 58.9984 49.5835 59.578 48.6637C60.1577 47.744 61.4193 45.4873 61.5131 44.1332C61.5642 43.3072 61.2318 42.3108 60.7203 41.3059C60.1662 40.2159 58.18 37.1757 55.4522 32.4834C52.3493 27.1524 47.5585 16.9928 44.072 9.26885C42.4864 5.76027 41.4635 2.92445 40.8753 0.522946C40.7218 -0.0987194 40.2189 -0.0305916 40.0143 0.0545681C39.8097 0.139728 38.6419 0.999841 37.2183 3.07774C35.4793 5.60698 35.1298 7.25908 35.2406 8.40874C35.377 9.86497 36.255 11.3893 37.2268 13.0414C38.9914 16.0135 43.0405 22.2898 47.209 27.2631C47.209 27.2631 46.3992 27.0502 43.4071 23.1669C41.0117 20.0586 38.6248 16.4904 37.1416 14.157C35.7776 12.011 35.215 10.8784 34.695 10.7677C34.2688 10.6825 33.5357 11.5937 33.0328 13.629C32.5042 15.758 32.4957 18.5087 33.0583 20.1437C33.5527 21.5915 34.7206 23.2521 36.7921 25.6451C38.9573 28.1488 42.2563 31.3337 45.3847 33.7863C45.3847 33.7863 44.2766 33.6245 38.9658 28.7108C35.377 25.3981 33.9875 23.5076 33.4078 23.4224C32.8708 23.3372 32.3764 25.0745 32.2741 26.2156C32.1803 27.3227 32.061 28.4809 32.4531 29.8094C33.3823 30.4821 34.2859 31.1208 35.1298 31.7084L35.1468 31.6829Z" fill="#8B6F4B"/>
<path d="M66.2355 78.9713C66.2184 79.0565 69.1168 72.1075 69.4492 70.7705C69.6964 69.7571 69.3214 68.7607 68.4604 68.2498C67.7784 67.841 60.5241 64.0343 59.8506 63.7193C59.3903 63.5064 58.7936 63.6426 58.1031 63.7959C57.7536 63.8725 53.0737 64.9711 49.9537 65.7205C49.5786 64.6645 49.1012 63.1742 48.6921 61.4285C47.8993 58.0987 46.936 54.6072 46.6632 52.2823C46.3649 49.7871 47.26 49.8297 47.3708 48.4501C47.4816 47.0791 47.5924 43.7919 46.936 42.2079C46.5354 41.2371 45.6318 40.3004 44.5406 39.4573C43.3557 38.5376 39.5368 36.2808 34.0896 32.4742C28.1565 28.3184 19.8281 21.9996 12.4118 16.115C6.66627 11.576 4.05777 9.25969 2.65975 7.80346C2.11418 7.23289 1.65386 7.5565 1.48337 7.7694C1.31288 7.99081 0.545675 9.62588 0.170597 12.7938C-0.289727 16.6515 0.247317 18.7294 0.997473 19.9643C1.94369 21.5397 3.70827 22.7575 5.66038 24.0689C9.17247 26.4279 16.9212 31.2224 24.0989 34.4755C24.0989 34.4755 23.1186 34.6969 17.8078 32.0058C13.5541 29.8513 9.05313 27.1688 6.19742 25.3804C3.57187 23.7283 2.34434 22.766 1.73911 22.9363C1.23616 23.0811 0.954851 24.5288 1.53452 27.1262C2.14828 29.8343 3.64859 32.9596 5.14038 34.484C6.46168 35.838 8.61838 37.0558 12.1305 38.5801C15.8131 40.1811 21.0727 41.9014 25.7441 42.8892C25.7441 42.8892 24.4825 43.3321 16.1199 40.8028C10.4852 39.0996 7.97052 37.7541 7.30561 37.984C6.69184 38.1969 7.10954 40.4451 7.62954 41.7907C8.28592 43.4853 8.93379 45.3163 11.0052 46.8662C13.0255 48.382 15.9068 48.8759 19.8196 49.5146C22.9225 50.0171 29.5119 50.1618 28.0883 50.4684C27.108 50.6813 22.8799 50.5791 20.2543 50.3662C15.0288 49.9404 13.2131 49.1314 12.3095 49.3103C11.4059 49.4891 12.4288 52.4526 14.0485 54.4965C15.8983 56.8213 18.2937 58.0902 20.4674 58.0902C22.9736 58.0902 26.6051 57.5622 30.5349 56.387C32.9388 55.6717 34.8312 54.7349 34.8312 54.7349C34.8312 54.7349 34.5414 55.5099 29.5546 57.3153C26.571 58.3968 24.7638 58.6863 23.3146 58.8992C22.59 59.0099 22.4451 59.3165 22.6753 60.0574C22.914 60.8068 23.3913 61.735 24.3205 62.8251C25.3946 64.094 26.7415 65.0988 28.2674 65.5843C29.9211 66.1037 30.9185 65.7631 32.2313 65.2521C33.544 64.7497 35.3086 63.9151 36.8942 62.9528C38.8633 61.7691 40.0227 60.8153 40.0227 60.8153C40.0227 60.8153 39.8863 61.5562 37.4227 63.3275C35.9053 64.4176 33.5099 65.6354 31.8562 66.2911C30.9611 66.6402 30.765 66.8957 30.6372 67.5685C30.4923 68.3008 30.7309 69.6379 30.9952 70.4043C31.2936 71.2729 31.6686 72.1501 32.5637 72.1415C33.2968 72.133 34.5329 71.7924 36.6299 70.9323C38.7269 70.0722 40.304 69.2291 41.4889 68.3349C41.4889 68.3349 41.5656 68.7692 39.2213 70.2084C37.4909 71.2644 35.1637 72.1075 34.0896 72.4566C33.2286 72.7291 33.1349 73.0187 33.2201 73.4104C33.3735 74.0747 33.8168 75.054 34.4135 75.582C34.9506 76.0589 35.4961 76.3399 36.2804 76.2377C37.0647 76.1355 38.3263 75.6416 39.4259 74.7474C40.8154 73.6318 41.4889 72.7291 41.8895 72.0819C41.9066 72.2523 41.9151 72.4226 41.9151 72.5844C41.7957 72.8313 41.6253 73.1209 41.3695 73.453C40.8069 74.1854 39.7413 75.1903 38.565 75.8886C37.7551 76.374 37.0561 76.6209 36.8771 76.8679C36.6725 77.1404 36.9538 77.3363 37.6614 77.6514C38.045 77.8217 38.4797 77.9835 38.9741 78.1112C37.6273 79.576 35.6837 81.4154 33.0922 83.1527C28.2247 86.4228 19.9304 89.6418 19.0183 89.6844C18.6517 89.7015 18.1743 89.8888 18.737 90.4168C19.3934 91.0299 20.7061 91.0725 21.516 90.9618C22.1382 90.8767 24.6444 89.9995 24.6444 89.9995C24.6444 89.9995 22.6923 90.8596 22.411 91.0129C22.1212 91.1662 21.7546 91.3961 22.2917 91.8049C22.8969 92.2562 23.7835 92.2051 24.5251 91.9667C25.4798 91.6686 27.449 90.4168 27.449 90.4168C27.449 90.4168 25.4543 91.873 25.1218 92.2051C24.7894 92.5373 25.2497 92.9801 26.0169 92.9205C26.733 92.8609 27.0313 92.8013 27.5684 92.5032C27.9434 92.2988 29.87 90.9363 30.2962 90.4764C30.049 90.9278 28.4208 92.3244 28.2588 92.5288C27.8667 93.0397 28.3441 93.0993 29.2392 93.0993C29.9552 93.0993 30.927 92.6224 32.3591 92.1455C33.9191 91.6261 35.5047 90.7319 37.2948 91.1151C39.085 91.4898 42.4521 93.1589 43.7393 95.4072C44.9242 96.8123 45.3334 97.2381 46.6803 97.2381C48.7603 97.2381 53.3635 96.3609 54.5996 96.2076C55.2133 96.131 55.435 95.0921 55.435 95.0921C55.435 95.0921 56.8585 95.6797 57.3444 95.9181C57.8303 96.1566 57.9838 96.5142 57.9667 96.7952C57.8815 97.3062 57.7621 97.7831 57.5064 98.3026C57.3018 98.7113 57.3274 99.035 57.8048 99.1371C57.9241 99.1627 58.0349 99.1542 58.1457 99.1371C58.1713 99.1712 58.1884 99.1968 58.2225 99.2393C58.5379 99.6907 58.8362 99.878 59.2966 99.9717C59.5949 100.04 60.132 99.9887 60.4729 99.7758C60.9333 99.4778 61.0611 99.1201 60.9588 99.1201C60.8736 99.1201 60.5411 99.4011 60.1831 99.4352C59.808 99.4693 59.5097 99.3415 59.1943 99.0775C59.092 98.9924 59.0238 98.8817 58.9641 98.7795C59.0152 98.7539 59.0664 98.7369 59.109 98.7199C59.5097 98.5836 59.3051 98.3026 59.4074 97.8087C59.5438 97.1359 60.0126 96.3184 60.507 95.7989C61.4788 94.777 62.3313 94.6918 63.0047 94.5726C63.6696 94.4534 64.0276 94.4874 64.3345 94.6152C64.6926 94.7514 64.7096 94.9047 65.0506 94.8706C65.3916 94.8451 65.5194 94.5641 65.6047 94.1553C65.6047 94.1298 65.6132 94.1042 65.6217 94.0787C65.6644 94.0787 65.707 94.0787 65.7496 94.0787C66.2611 94.0787 66.6532 94.3256 66.9004 94.7344C67.1306 95.1261 67.0965 95.6711 67.1561 95.7563C67.2243 95.8585 67.5056 95.3901 67.463 94.6577C67.4375 94.2064 67.1902 93.7465 66.8834 93.5251C66.5253 93.2696 66.1843 93.1419 65.724 93.1078C65.724 93.0482 65.724 92.9801 65.7155 92.912C65.5791 91.6431 64.4624 92.5117 63.5673 92.6565C62.8086 92.7757 58.5293 93.5081 57.6684 93.4059C56.8159 93.2952 55.9379 92.929 55.9379 92.929C56.0572 92.5117 55.9976 92.0944 55.435 91.8219C54.8723 91.5494 48.0357 89.5482 48.0357 89.5482C48.0357 89.5482 52.4088 87.4788 53.9261 86.2099C55.0599 85.2561 55.7674 81.0407 57.5746 81.0748C58.1031 81.0833 58.7339 81.211 59.5011 81.475C61.4106 82.1393 62.229 81.7135 62.766 81.3643C62.8854 81.2877 63.0644 81.0152 63.0644 81.0152C63.0644 81.0152 63.3542 81.1174 63.3372 81.4836C63.3116 81.9264 63.2519 82.3607 63.2519 82.3607C63.5588 82.3352 64.2749 81.9434 64.6499 81.2025C64.9057 80.6831 64.8631 79.8826 64.8631 79.8826H64.9568C65.724 79.8485 66.0735 79.3375 66.2185 79.0224L66.2355 78.9713ZM64.6499 75.9567C64.6499 76.5954 64.6926 78.0431 64.5732 77.8472C64.5135 77.745 64.3772 76.2973 64.3772 76.2973C64.2408 74.7645 63.8827 74.9944 63.4906 74.8411C63.0985 74.6878 62.8683 74.3898 62.8513 73.9895C62.8342 73.5893 62.8598 73.3338 62.8086 73.0187C62.7234 72.5333 62.3824 72.0734 62.3228 71.8265C62.2546 71.5199 63.1411 72.6099 63.8316 72.8399C64.4027 73.0272 64.7693 73.4275 64.7863 73.9725C64.8119 74.5516 64.6499 75.318 64.6499 75.9567ZM60.3365 68.1901C59.8762 68.1561 58.4356 68.0283 58.2736 69.7741C58.1031 71.6136 58.9811 78.2219 59.0408 79.1161C59.1005 80.0529 59.1431 80.666 59.0579 80.5383C58.9641 80.402 58.7339 79.8059 58.5038 78.7755C58.248 77.6003 57.4723 71.8179 57.5064 69.723C57.5235 68.5393 58.1457 67.9772 58.572 67.7047C59.0323 67.4067 59.5438 67.3982 60.1746 67.4322C60.8139 67.4663 65.7922 68.0965 66.8407 68.4541C67.5738 68.7011 68.4263 69.1013 68.2217 70.9067C68.1706 71.3836 67.9489 72.0819 67.966 71.6817C67.9745 71.3921 68.0001 71.3496 67.966 70.9152C67.9319 70.4809 67.9489 69.706 66.8834 69.2717C65.8689 68.8544 61.2231 68.2583 60.328 68.1987L60.3365 68.1901Z" fill="#8B6F4B"/>
<path d="M78.59 95.8375V66.8162H90.0687C94.2954 66.8162 96.4173 68.8423 96.5196 73.2606V89.4015C96.4258 93.7858 94.0653 95.9141 90.0687 95.9141C84.6574 95.9141 78.59 95.8375 78.59 95.8375ZM85.3562 89.2057C85.3562 89.2057 86.9156 89.2568 87.7678 89.2568C88.62 89.2568 89.9067 89.0525 89.9067 87.6648V75.0058C89.9067 73.6182 89.4892 72.7839 87.9382 72.7839H85.3562V89.2057Z" fill="black"/>
<path d="M108.543 80.2237H117.346V89.7243C117.346 94.6534 113.315 96.4242 108.381 96.4242C103.447 96.4242 99.2543 94.6534 99.2543 89.7243V72.8768C99.2543 67.9477 103.285 66.177 108.219 66.177C113.153 66.177 117.184 67.9477 117.184 72.8768V76.3247H110.409V73.941C110.409 72.681 109.472 72.0085 108.219 72.0085C106.966 72.0085 106.029 72.681 106.029 73.941V88.6602C106.029 89.9201 107.128 90.5927 108.381 90.5927C109.634 90.5927 110.733 89.9201 110.733 88.6602V85.7742C110.733 84.2078 108.56 84.0972 108.56 84.0972L108.543 80.2237Z" fill="black"/>
<path d="M126.695 66.8149V76.3156H127.846L131.595 66.8149H138.336L132.95 80.9297L138.498 95.7851H131.408L126.704 82.8111V95.7851H119.929V66.8234H126.704L126.695 66.8149Z" fill="black"/>
<path d="M151.05 68.4328V70.0928H143.014V68.4328H145.937V67.2324H147.982V68.4328H151.042H151.05ZM150.462 73.5321C150.462 75.2518 149.013 76.4862 146.985 76.4862C144.957 76.4862 143.525 75.2603 143.525 73.5321C143.525 71.804 144.974 70.5611 146.985 70.5611C148.996 70.5611 150.462 71.787 150.462 73.5321ZM154.944 79.0827V80.9471H143.738V76.98H145.767V79.0827H154.936H154.944ZM148.511 73.5321C148.511 72.766 147.94 72.136 146.985 72.136C146.031 72.136 145.477 72.766 145.477 73.5321C145.477 74.2983 146.014 74.8857 146.985 74.8857C147.957 74.8857 148.511 74.2898 148.511 73.5321ZM156.385 71.523V73.464H154.663V77.3035H152.618V67.7432H154.663V71.523H156.385Z" fill="black"/>
<path d="M176.564 81.16H174.519V78.1208H165.128V76.3501H169.729V74.7496H164.48V72.9619H177.211V74.7496H171.775V76.3501H176.564V81.16ZM176.087 73.2087H174.11C174.357 72.698 174.621 69.795 174.621 69.795H165.136V67.9476H176.93C176.93 67.9476 176.632 70.3483 176.487 71.3614C176.342 72.3745 176.095 73.2002 176.095 73.2002L176.087 73.2087Z" fill="black"/>
<path d="M186.185 71.3189C186.185 69.2417 187.693 67.7349 189.866 67.7349C192.039 67.7349 193.556 69.2417 193.556 71.3189C193.556 73.3961 192.031 74.8859 189.866 74.8859C187.702 74.8859 186.185 73.3621 186.185 71.3189ZM194.792 81.1601H190.233C188.094 81.1601 186.756 80.1726 186.756 78.4189C186.756 76.8014 188.094 75.6776 190.233 75.6776H194.792C196.914 75.6776 198.252 76.8014 198.252 78.4189C198.252 80.1726 196.914 81.1601 194.792 81.1601ZM188.205 71.3189C188.205 72.349 188.835 73.1662 189.866 73.1662C190.897 73.1662 191.528 72.349 191.528 71.3189C191.528 70.2888 190.897 69.4545 189.866 69.4545C188.835 69.4545 188.205 70.2548 188.205 71.3189ZM190.233 79.4404H194.434C195.482 79.4404 196.155 79.134 196.155 78.4274C196.155 77.7208 195.482 77.4143 194.434 77.4143H190.556C189.559 77.4143 188.852 77.6867 188.852 78.4274C188.852 79.0233 189.389 79.4404 190.241 79.4404H190.233ZM198.039 67.7349V75.2094H196.01V73.7622H193.948V71.9489H196.01V70.6889H193.948V68.8926H196.01V67.7434H198.039V67.7349Z" fill="black"/>
<path d="M218.832 78.274L218.278 79.8063C218.278 79.8063 216.744 80.3597 214.886 80.5129C214.332 80.5555 212.849 80.5725 212.006 80.5725C210.54 80.5725 207.574 80.5129 207.574 80.5129V78.6485H210.915V76.3074H212.96V78.6485C212.96 78.6485 215.389 78.6911 216.599 78.5464C217.843 78.4017 218.823 78.2654 218.823 78.2654L218.832 78.274ZM215.985 68.5094V70.1865H207.796V68.5094H210.847V67.2324H212.943V68.5094H215.994H215.985ZM215.542 73.7535C215.542 75.5923 214.128 76.8863 212.006 76.8863H211.852C209.713 76.8863 208.316 75.5838 208.316 73.7535C208.316 71.9232 209.713 70.6292 211.852 70.6292H212.006C214.128 70.6292 215.542 71.9317 215.542 73.7535ZM213.582 73.7535C213.582 72.9362 212.969 72.2637 211.997 72.2637H211.835C210.872 72.2637 210.233 72.9362 210.233 73.7535C210.233 74.5708 210.864 75.2433 211.835 75.2433H211.997C212.96 75.2433 213.582 74.6048 213.582 73.7535ZM219.309 74.6899V81.0237H217.264V67.7347H219.309V72.7319H221.03V74.6814H219.309V74.6899Z" fill="black"/>
<path d="M229.638 67.9562H236.285V69.0629C236.285 72.383 233.421 74.6731 229.774 75.0477L228.99 73.3876C231.717 73.0811 233.856 71.8808 234.223 69.744H229.638V67.9562ZM240.861 75.6521V80.9387H229.936V75.6521H240.861ZM231.964 79.2361H238.816V77.3632H231.964V79.2361ZM242.582 70.3484V72.2894H240.861V75.0562H238.816V67.7349H240.861V70.3484H242.582Z" fill="black"/>
<path d="M251.325 72.7321V67.9478H262.761V69.6078H253.371V71.0721H262.838V72.7321H258.023V74.0091H263.409V75.6862H250.678V74.0091H255.97V72.7321H251.325ZM251.325 78.4104V76.7333H262.761V81.1601H260.716V78.4104H251.325Z" fill="black"/>
<path d="M284.952 78.6401V80.513H272.22V78.6401H277.487V75.2604H279.643V78.6401H284.952ZM273.414 76.0521L272.306 74.3239C274.768 73.5833 276.899 72.0679 277.734 69.8375H272.877V67.9646H284.313V69.8375H280.026C279.916 70.2546 279.805 70.5271 279.634 70.9101C280.793 72.119 282.838 73.5067 284.977 74.0174L283.955 75.8222C281.586 75.2689 280.026 74.06 278.569 72.6809C277.291 74.2473 275.348 75.4902 273.422 76.0606L273.414 76.0521Z" fill="black"/>
<path d="M301.885 68.3051V69.9481H293.849V68.3051H296.772V67.2324H298.818V68.3051H301.877H301.885ZM298.119 75.4561H297.548C295.733 75.4561 294.361 74.4856 294.361 72.9192C294.361 71.3528 295.733 70.3993 297.548 70.3993H298.119C299.934 70.3993 301.306 71.3698 301.306 72.9192C301.306 74.4686 299.934 75.4561 298.119 75.4561ZM305.507 75.7966V80.9471H294.582V75.7966H296.611V76.7671H303.479V75.7966H305.507ZM297.548 73.8897H298.119C298.826 73.8897 299.346 73.5236 299.346 72.9192C299.346 72.3148 298.826 71.9232 298.119 71.9232H297.548C296.824 71.9232 296.321 72.3573 296.321 72.9192C296.321 73.5151 296.832 73.8897 297.548 73.8897ZM296.593 79.3296H303.47V78.3336H296.593V79.3296ZM307.229 70.5696V72.5106H305.507V75.2433H303.462V67.7432H305.507V70.5696H307.229Z" fill="black"/>
<path d="M143.764 85.4934H147.283C150.053 85.4934 150.564 87.3323 150.564 90.4736C150.564 92.023 150.803 95.5645 147.198 95.5645H143.764V85.4934ZM145.869 94.0151H146.891C148.178 94.0151 148.425 93.0531 148.425 90.5247C148.425 88.6688 148.425 87.0343 146.96 87.0343H145.869V94.0151Z" fill="#8B6F4B"/>
<path d="M152.251 95.5645V85.4934H154.365V95.5645H152.251Z" fill="#8B6F4B"/>
<path d="M163.901 95.5645V85.4934H169.406V87.0428H166.014V89.5286H169.142V91.078H166.014V94.0236H169.517V95.573H163.901V95.5645Z" fill="#8B6F4B"/>
<path d="M170.786 90.5336C170.786 87.8689 170.786 85.332 174.263 85.332C176.411 85.332 177.28 86.5154 177.195 88.6777H175.124C175.124 87.3411 174.885 86.8389 174.255 86.8389C173.07 86.8389 172.917 87.9541 172.917 90.5336C172.917 93.113 173.07 94.2283 174.255 94.2283C175.235 94.2283 175.192 92.9683 175.218 92.1766H177.297C177.297 94.8668 176.223 95.7351 174.255 95.7351C170.778 95.7351 170.778 93.1641 170.778 90.5336H170.786Z" fill="#8B6F4B"/>
<path d="M184.66 85.4934V87.1705H182.316V95.573H180.211V87.1705H177.868V85.4934H184.668H184.66Z" fill="#8B6F4B"/>
<path d="M185.324 90.5336C185.324 87.8689 185.324 85.332 188.801 85.332C192.278 85.332 192.278 87.8689 192.278 90.5336C192.278 93.1982 192.278 95.7351 188.801 95.7351C185.324 95.7351 185.324 93.1641 185.324 90.5336ZM190.139 90.5336C190.139 87.9541 189.986 86.8389 188.801 86.8389C187.617 86.8389 187.463 87.9541 187.463 90.5336C187.463 93.113 187.617 94.2283 188.801 94.2283C189.986 94.2283 190.139 93.113 190.139 90.5336Z" fill="#8B6F4B"/>
<path d="M204.456 95.7343C201.848 95.7343 201.354 94.202 201.464 92.4568H203.569C203.569 93.4187 203.612 94.2275 204.771 94.2275C205.487 94.2275 205.836 93.7678 205.836 93.0867C205.836 91.2734 201.592 91.1628 201.592 88.1576C201.592 86.5827 202.351 85.3228 204.916 85.3228C206.969 85.3228 207.992 86.2422 207.847 88.3534H205.793C205.793 87.5958 205.666 86.8296 204.813 86.8296C204.132 86.8296 203.723 87.2042 203.723 87.9022C203.723 89.8177 207.966 89.6474 207.966 92.8143C207.966 95.4279 206.049 95.7343 204.447 95.7343H204.456Z" fill="#8B6F4B"/>
<path d="M217.409 88.5918C217.426 87.6554 217.272 86.8296 216.148 86.8296C214.835 86.8296 214.835 88.6003 214.835 90.5583C214.835 93.7082 215.142 94.2701 216.344 94.2701C216.693 94.2701 217.068 94.1849 217.392 94.0743V91.8438H216.25V90.2944H219.505V95.4023C218.934 95.513 217.494 95.7343 216.659 95.7343C213.114 95.7343 212.705 94.2701 212.705 90.4477C212.705 87.9107 212.833 85.3228 216.284 85.3228C218.355 85.3228 219.633 86.4805 219.514 88.5918H217.417H217.409Z" fill="#8B6F4B"/>
<path d="M228.146 85.4934V92.6359C228.146 94.1428 227.294 95.7347 224.72 95.7347C222.402 95.7347 221.286 94.5344 221.286 92.6359V85.4934H223.391V92.4997C223.391 93.7427 223.919 94.2279 224.686 94.2279C225.607 94.2279 226.024 93.615 226.024 92.4997V85.4934H228.138H228.146Z" fill="#8B6F4B"/>
<path d="M229.867 95.5645V85.4934H231.981V95.5645H229.867Z" fill="#8B6F4B"/>
<path d="M233.762 95.5645V85.4934H235.875V93.8959H239.028V95.573H233.762V95.5645Z" fill="#8B6F4B"/>
<path d="M239.992 85.4934H243.511C246.281 85.4934 246.792 87.3323 246.792 90.4736C246.792 92.023 247.031 95.5645 243.426 95.5645H239.992V85.4934ZM242.097 94.0151H243.119C244.406 94.0151 244.653 93.0531 244.653 90.5247C244.653 88.6688 244.653 87.0343 243.187 87.0343H242.097V94.0151Z" fill="#8B6F4B"/>
<path d="M251.487 90.5336C251.487 87.8689 251.487 85.332 254.964 85.332C258.441 85.332 258.441 87.8689 258.441 90.5336C258.441 93.1982 258.441 95.7351 254.964 95.7351C251.487 95.7351 251.487 93.1641 251.487 90.5336ZM256.302 90.5336C256.302 87.9541 256.148 86.8389 254.964 86.8389C253.779 86.8389 253.626 87.9541 253.626 90.5336C253.626 93.113 253.779 94.2283 254.964 94.2283C256.148 94.2283 256.302 93.113 256.302 90.5336Z" fill="#8B6F4B"/>
<path d="M260.077 95.5645V85.4934H265.318V87.0428H262.19V89.6223H265.181V91.1717H262.19V95.5645H260.085H260.077Z" fill="#8B6F4B"/>
<path d="M277.087 90.5336C277.087 87.8689 277.087 85.332 280.564 85.332C284.04 85.332 284.04 87.8689 284.04 90.5336C284.04 93.1982 284.04 95.7351 280.564 95.7351C277.087 95.7351 277.087 93.1641 277.087 90.5336ZM281.902 90.5336C281.902 87.9541 281.748 86.8389 280.564 86.8389C279.379 86.8389 279.226 87.9541 279.226 90.5336C279.226 93.113 279.379 94.2283 280.564 94.2283C281.748 94.2283 281.902 93.113 281.902 90.5336Z" fill="#8B6F4B"/>
<path d="M293.482 95.5645V85.4934H298.987V87.0428H295.596V89.5286H298.723V91.078H295.596V94.0236H299.098V95.573H293.482V95.5645Z" fill="#8B6F4B"/>
<path d="M299.695 95.5645L302.49 85.4934H305.268L308.003 95.5645H305.779L305.217 93.334H302.336L301.765 95.5645H299.686H299.695ZM303.759 87.4344H303.734L302.771 91.7846H304.782L303.759 87.4344Z" fill="#8B6F4B"/>
<path d="M276.43 85.4934H274.113L272.144 88.9242H271.616V85.4934H269.502V95.5645H271.616V90.4055H271.641L274.053 95.5645H276.43L273.61 90.0139L276.43 85.4934Z" fill="#8B6F4B"/>
<path d="M160.475 95.5642H162.546L160.867 91.2991C162.401 90.7457 162.35 89.3751 162.35 87.9619C162.35 86.5488 161.429 85.4846 159.989 85.4846H156.095V95.5557H158.208V91.5289H158.813L160.483 95.5557L160.475 95.5642ZM158.199 87.0425H159.137C159.81 87.0425 160.211 87.4086 160.211 88.3706C160.211 89.0091 159.972 89.8519 159.137 89.8519H158.199V87.051V87.0425Z" fill="#8B6F4B"/>
<path d="M198.329 95.5642H200.399L198.721 91.2991C200.255 90.7457 200.203 89.3751 200.203 87.9619C200.203 86.5488 199.283 85.4846 197.843 85.4846H193.948V95.5557H196.062V91.5289H196.667L198.337 95.5557L198.329 95.5642ZM196.053 87.0425H196.991C197.664 87.0425 198.064 87.4086 198.064 88.3706C198.064 89.0091 197.826 89.8519 196.991 89.8519H196.053V87.051V87.0425Z" fill="#8B6F4B"/>
<path d="M290.048 95.5642H292.119L290.44 91.2991C291.974 90.7457 291.923 89.3751 291.923 87.9619C291.923 86.5488 291.003 85.4846 289.562 85.4846H285.668V95.5557H287.781V91.5289H288.386L290.057 95.5557L290.048 95.5642ZM287.773 87.0425H288.71C289.383 87.0425 289.784 87.4086 289.784 88.3706C289.784 89.0091 289.545 89.8519 288.71 89.8519H287.773V87.051V87.0425Z" fill="#8B6F4B"/>
</svg>
