<svg width="20" height="20" viewBox="0 0 20 20" fill="none" xmlns="http://www.w3.org/2000/svg">
<path d="M7.82936 16.1426L8.3164 17.2379C8.46118 17.564 8.69747 17.841 8.99659 18.0355C9.29571 18.2299 9.64483 18.3334 10.0016 18.3333C10.3583 18.3334 10.7075 18.2299 11.0066 18.0355C11.3057 17.841 11.542 17.564 11.6868 17.2379L12.1738 16.1426C12.3472 15.7539 12.6388 15.4298 13.0071 15.2166C13.3778 15.0028 13.8066 14.9117 14.2321 14.9564L15.4238 15.0833C15.7785 15.1208 16.1365 15.0546 16.4544 14.8927C16.7722 14.7308 17.0363 14.4802 17.2145 14.1713C17.393 13.8625 17.4781 13.5085 17.4593 13.1524C17.4406 12.7962 17.3189 12.4531 17.109 12.1648L16.4034 11.1953C16.1522 10.8476 16.018 10.429 16.0201 9.99996C16.02 9.57212 16.1555 9.15525 16.4071 8.80922L17.1127 7.83977C17.3226 7.55142 17.4443 7.20835 17.463 6.85219C17.4818 6.49602 17.3967 6.14208 17.2183 5.83329C17.04 5.52432 16.7759 5.2737 16.4581 5.11182C16.1402 4.94993 15.7822 4.88373 15.4275 4.92126L14.2358 5.04811C13.8103 5.0928 13.3815 5.00173 13.0108 4.78792C12.6418 4.5735 12.3501 4.24776 12.1775 3.85737L11.6868 2.762C11.542 2.43594 11.3057 2.15889 11.0066 1.96446C10.7075 1.77003 10.3583 1.66657 10.0016 1.66663C9.64483 1.66657 9.29571 1.77003 8.99659 1.96446C8.69747 2.15889 8.46118 2.43594 8.3164 2.762L7.82936 3.85737C7.6568 4.24776 7.36509 4.5735 6.99603 4.78792C6.62538 5.00173 6.19659 5.0928 5.77103 5.04811L4.57566 4.92126C4.22094 4.88373 3.86294 4.94993 3.54509 5.11182C3.22724 5.2737 2.96317 5.52432 2.78492 5.83329C2.60644 6.14208 2.52141 6.49602 2.54014 6.85219C2.55888 7.20835 2.68058 7.55142 2.89048 7.83977L3.59603 8.80922C3.84765 9.15525 3.98315 9.57212 3.98307 9.99996C3.98315 10.4278 3.84765 10.8447 3.59603 11.1907L2.89048 12.1601C2.68058 12.4485 2.55888 12.7916 2.54014 13.1477C2.52141 13.5039 2.60644 13.8578 2.78492 14.1666C2.96335 14.4754 3.22744 14.7259 3.54525 14.8878C3.86306 15.0496 4.22096 15.1159 4.57566 15.0787L5.76733 14.9518C6.19289 14.9071 6.62167 14.9982 6.99233 15.212C7.36277 15.4258 7.65583 15.7516 7.82936 16.1426Z" stroke="#757575" stroke-width="2" stroke-linecap="round" stroke-linejoin="round"/>
<path d="M10.0001 12.5C11.3808 12.5 12.5001 11.3807 12.5001 9.99996C12.5001 8.61925 11.3808 7.49996 10.0001 7.49996C8.61939 7.49996 7.5001 8.61925 7.5001 9.99996C7.5001 11.3807 8.61939 12.5 10.0001 12.5Z" stroke="#757575" stroke-width="2" stroke-linecap="round" stroke-linejoin="round"/>
</svg>
