<svg width="20" height="20" viewBox="0 0 20 20" fill="none" xmlns="http://www.w3.org/2000/svg">
<path d="M10.8 4.55556C10.8 5.41467 8.83005 6.11111 6.4 6.11111C3.96995 6.11111 2 5.41467 2 4.55556M10.8 4.55556C10.8 3.69645 8.83005 3 6.4 3C3.96995 3 2 3.69645 2 4.55556M10.8 4.55556V8.02223C9.8228 8.30754 9.2 8.73917 9.2 9.22222M2 4.55556V13.8889C2 14.748 3.96995 15.4444 6.4 15.4444C7.4637 15.4444 8.43925 15.311 9.2 15.0889V9.22222M2 7.66667C2 8.52578 3.96995 9.22222 6.4 9.22222C7.4637 9.22222 8.43925 9.08878 9.2 8.86666M2 10.7778C2 11.6369 3.96995 12.3333 6.4 12.3333C7.4637 12.3333 8.43925 12.1999 9.2 11.9778M18 9.22222C18 10.0813 16.0301 10.7778 13.6 10.7778C11.1699 10.7778 9.2 10.0813 9.2 9.22222M18 9.22222C18 8.36311 16.0301 7.66667 13.6 7.66667C11.1699 7.66667 9.2 8.36311 9.2 9.22222M18 9.22222V15.4444C18 16.3036 16.0301 17 13.6 17C11.1699 17 9.2 16.3036 9.2 15.4444V9.22222M18 12.3333C18 13.1924 16.0301 13.8889 13.6 13.8889C11.1699 13.8889 9.2 13.1924 9.2 12.3333" stroke="#AAAAAA" stroke-width="2" stroke-linecap="round" stroke-linejoin="round"/>
</svg>
