<svg width="20" height="20" viewBox="0 0 20 20" fill="none" xmlns="http://www.w3.org/2000/svg">
<path d="M16 10V5.84C16 4.49587 16 3.82381 15.7307 3.31042C15.4939 2.85883 15.1159 2.49168 14.651 2.26158C14.1225 2 13.4307 2 12.0471 2L6.95294 2C5.56928 2 4.87745 2 4.34896 2.26158C3.88409 2.49168 3.50614 2.85883 3.26928 3.31042C3 3.82381 3 4.49587 3 5.84V14.16C3 15.5041 3 16.1762 3.26928 16.6896C3.50614 17.1412 3.88409 17.5083 4.34896 17.7384C4.87745 18 5.56928 18 6.95294 18H9M12 10H7M12.0471 6H7M12 16L14 18L17 13" stroke="#AAAAAA" stroke-width="2" stroke-linecap="round" stroke-linejoin="round"/>
</svg>
