<svg width="20" height="20" viewBox="0 0 20 20" fill="none" xmlns="http://www.w3.org/2000/svg">
<path d="M17 17H4.24444C3.80885 17 3.59105 17 3.42467 16.9152C3.27833 16.8406 3.15934 16.7217 3.08477 16.5753C3 16.409 3 16.1912 3 15.7556V3M16.2222 6.88889L13.1742 10.1421C13.0587 10.2654 13.001 10.327 12.9313 10.3589C12.8698 10.387 12.802 10.3986 12.7347 10.3925C12.6584 10.3856 12.5834 10.3467 12.4334 10.2689L9.8999 8.95334C9.74994 8.87549 9.67497 8.8366 9.59867 8.82968C9.53131 8.82361 9.46357 8.8352 9.40204 8.86336C9.33236 8.89524 9.27464 8.95684 9.15914 9.08012L6.11111 12.3333" stroke="#AAAAAA" stroke-width="2" stroke-linecap="round" stroke-linejoin="round"/>
</svg>
