<svg width="20" height="20" viewBox="0 0 20 20" fill="none" xmlns="http://www.w3.org/2000/svg">
<path d="M14 17V16.0118C14 14.6281 14 13.9593 13.752 13.4078C13.5339 12.9226 13.1859 12.5282 12.7578 12.281C12.2712 12 11.6341 12 10.36 12H5.84C4.49587 12 3.82381 12 3.31042 12.281C2.85883 12.5282 2.49168 12.9226 2.26158 13.4078C2 13.9593 2 14.6281 2 16.0118V17M13.5 5L15 6.5L18 3M11 6C11 7.65685 9.65685 9 8 9C6.34315 9 5 7.65685 5 6C5 4.34315 6.34315 3 8 3C9.65685 3 11 4.34315 11 6Z" stroke="#AAAAAA" stroke-width="2" stroke-linecap="round" stroke-linejoin="round"/>
</svg>
