<svg width="20" height="20" viewBox="0 0 20 20" fill="none" xmlns="http://www.w3.org/2000/svg">
<path d="M10 10H7M12 6H7M16 8.8V5.84C16 4.49587 16 3.82381 15.7502 3.31042C15.5305 2.85883 15.1799 2.49168 14.7487 2.26158C14.2585 2 13.6168 2 12.3333 2H8C6.59987 2 4.8998 2 4.36502 2.26158C3.89462 2.49168 3.51217 2.85883 3.27248 3.31042C3 3.82381 3 4.49587 3 5.84V14.16C3 15.5041 3 16.1762 3.27248 16.6896C3.51217 17.1412 3.89462 17.5083 4.36502 17.7384C4.8998 18 5.59987 18 7 18H8M17 18L15.75 16.8M16.5833 14.8C16.5833 16.3464 15.2775 17.6 13.6667 17.6C12.0558 17.6 10.75 16.3464 10.75 14.8C10.75 13.2536 12.0558 12 13.6667 12C15.2775 12 16.5833 13.2536 16.5833 14.8Z" stroke="#AAAAAA" stroke-width="2" stroke-linecap="round" stroke-linejoin="round"/>
</svg>
