<svg width="20" height="20" viewBox="0 0 20 20" fill="none" xmlns="http://www.w3.org/2000/svg">
<path d="M18 17V15.2976C18 13.7111 16.9377 12.378 15.5 12M13 3C14.1727 3.47993 15 4.64229 15 6C15 7.35771 14.1727 8.52007 13 9M14 17C14 15.4469 14 14.6703 13.7716 14.0577C13.4672 13.241 12.8831 12.592 12.1481 12.2537C11.5967 12 10.8978 12 9.5 12H8H6.5C5.10218 12 4.40326 12 3.85195 12.2537C3.11687 12.592 2.53284 13.241 2.22836 14.0577C2 14.6703 2 15.4469 2 17M11 6C11 7.65685 9.65685 9 8 9C6.34315 9 5 7.65685 5 6C5 4.34315 6.34315 3 8 3C9.65685 3 11 4.34315 11 6Z" stroke="#AAAAAA" stroke-width="2" stroke-linecap="round" stroke-linejoin="round"/>
</svg>
