<svg width="20" height="20" viewBox="0 0 20 20" fill="none" xmlns="http://www.w3.org/2000/svg">
<path d="M10 18V2M6 18V14M6 6V2M14 18V14M14 6V2M2 6H18M2 14H18M18 14.16V5.84C18 4.49587 18 3.82381 17.7384 3.31042C17.5083 2.85883 17.1412 2.49168 16.6896 2.26158C16.1762 2 15.5041 2 14.16 2L5.84 2C4.49587 2 3.82381 2 3.31042 2.26158C2.85883 2.49168 2.49168 2.85883 2.26158 3.31042C2 3.82381 2 4.49587 2 5.84L2 14.16C2 15.5041 2 16.1762 2.26158 16.6896C2.49168 17.1412 2.85883 17.5083 3.31042 17.7384C3.82381 18 4.49587 18 5.84 18H14.16C15.5041 18 16.1762 18 16.6896 17.7384C17.1412 17.5083 17.5083 17.1412 17.7384 16.6896C18 16.1762 18 15.5041 18 14.16Z" stroke="#AAAAAA" stroke-width="2" stroke-linecap="round" stroke-linejoin="round"/>
</svg>
