<svg width="20" height="20" viewBox="0 0 20 20" fill="none" xmlns="http://www.w3.org/2000/svg">
<path d="M10 18C14.4183 18 18 14.4183 18 10C18 5.58172 14.4183 2 10 2C5.58172 2 2 5.58172 2 10C2 14.4183 5.58172 18 10 18Z" stroke="#AAAAAA" stroke-width="2" stroke-linecap="round" stroke-linejoin="round"/>
<path d="M7.75 7.75H7.7575M12.25 12.25H12.2575M13 7L7 13M8.125 7.75C8.125 7.95711 7.95711 8.125 7.75 8.125C7.54289 8.125 7.375 7.95711 7.375 7.75C7.375 7.54289 7.54289 7.375 7.75 7.375C7.95711 7.375 8.125 7.54289 8.125 7.75ZM12.625 12.25C12.625 12.4571 12.4571 12.625 12.25 12.625C12.0429 12.625 11.875 12.4571 11.875 12.25C11.875 12.0429 12.0429 11.875 12.25 11.875C12.4571 11.875 12.625 12.0429 12.625 12.25Z" stroke="#AAAAAA" stroke-width="2" stroke-linecap="round" stroke-linejoin="round"/>
</svg>
