<svg width="20" height="20" viewBox="0 0 20 20" fill="none" xmlns="http://www.w3.org/2000/svg">
<path d="M6 2V4.20144C6 4.86255 6 5.19311 6.07726 5.49943C6.14572 5.77083 6.25833 6.0273 6.40998 6.25715C6.58113 6.51656 7.52386 7.57677 8 8L12 12C12.4761 12.4232 13.424 13.4834 13.5952 13.7429C13.7468 13.9727 13.8595 14.2292 13.9279 14.5006C14.0052 14.8069 14.0052 15.3389 14.0052 16V18M6 2H4M6 2H16M14.0052 18H4M14.0052 18H16M6 18C6 17.3384 6 14.8068 6.07725 14.5006C6.14571 14.2291 6.25832 13.9727 6.40997 13.7428C6.58112 13.4834 7.52903 12.4232 8.00516 12L12.0052 7.99998C12.4813 7.57674 13.424 6.51653 13.5952 6.25713C13.7468 6.02728 13.8594 5.77081 13.9279 5.4994C14.0052 5.19308 14 2.66111 14 2" stroke="#AAAAAA" stroke-width="2" stroke-linecap="round" stroke-linejoin="round"/>
</svg>
