<svg width="20" height="20" viewBox="0 0 20 20" fill="none" xmlns="http://www.w3.org/2000/svg">
<path d="M12 2.5V5.67529C12 6.13898 12 6.37083 12.0954 6.54793C12.1793 6.70372 12.3131 6.83038 12.4778 6.90976C12.6649 7 12.91 7 13.4 7H16.5M7 12V13V14M13 11V14M10 9V14M17 8.39058V14.16C17 15.5041 17 16.1762 16.7139 16.6896C16.4622 17.1412 16.0607 17.5083 15.5667 17.7384C15.0052 18 14.4503 18 12.9802 18H7C5.52986 18 4.99479 18 4.43327 17.7384C3.93935 17.5083 3.53778 17.1412 3.28611 16.6896C3 16.1762 3 15.5041 3 14.16V5.84C3 4.49587 3 3.82381 3.28611 3.31042C3.53778 2.85883 3.93935 2.49168 4.43327 2.26158C4.99479 2 5.52986 2 7 2H10.0103C10.6524 2 10.9734 2 11.2755 2.06631C11.5433 2.1251 11.7994 2.22207 12.0342 2.35366C12.2992 2.50208 12.5262 2.70963 12.9802 3.12471L15.7698 5.67529C16.2238 6.09037 16.4508 6.29792 16.6132 6.54012C16.7571 6.75485 16.8632 6.98896 16.9275 7.23384C17 7.51005 17 7.80356 17 8.39058Z" stroke="#AAAAAA" stroke-width="2" stroke-linecap="round" stroke-linejoin="round"/>
</svg>
