<svg width="20" height="20" viewBox="0 0 20 20" fill="none" xmlns="http://www.w3.org/2000/svg">
<path d="M7.5 9.5L9.23077 11L12.5 7.5M17 18V6C17 4.59987 17 3.8998 16.7548 3.36502C16.539 2.89462 16.1948 2.51217 15.7715 2.27248C15.2902 2 14.6601 2 13.4 2H6.6C5.33988 2 4.70982 2 4.22852 2.27248C3.80516 2.51217 3.46095 2.89462 3.24524 3.36502C3 3.8998 3 4.59987 3 6V18L5.5 16L7.5 18L10 16L12.5 18L14.5 16L17 18Z" stroke="#AAAAAA" stroke-width="2" stroke-linecap="round" stroke-linejoin="round"/>
</svg>
